<svg id="ephi-logo" xmlns="http://www.w3.org/2000/svg" width="50" height="50" viewBox="0 0 454.43 454.44" overflow="visible"><path d="M103.24 278.79v-99.82h48.22v19.88h-26.65v19.6h24.53v18.61h-24.53v21.43h28.34v20.3h-49.91zM228.01 210.27c0 5.55-.85 10.34-2.54 14.38-1.69 4.04-3.95 7.38-6.77 10.01-2.82 2.63-6.02 4.58-9.59 5.85-3.57 1.27-7.19 1.9-10.86 1.9h-9.73v36.37H166.4v-99.82h31.02c3.57 0 7.17.52 10.79 1.55 3.62 1.04 6.91 2.75 9.87 5.15 2.96 2.4 5.36 5.62 7.19 9.66 1.83 4.05 2.74 9.03 2.74 14.95zm-21.15.43c0-4.51-1.08-7.75-3.24-9.73-2.16-1.97-4.79-2.96-7.9-2.96h-7.19v26.08h7.19c3.1 0 5.73-1.15 7.9-3.45 2.16-2.31 3.24-5.62 3.24-9.94zM285.67 278.79v-41.73h-23.26v41.73h-22.42v-99.82h22.42v37.78h23.26v-37.78h22.42v99.82h-22.42zM325.85 278.79v-99.82h22.7v99.82h-22.7z"/><g><path d="M226.95 0C101.35.14-.08 101.9 0 227.7c.08 125.13 101.97 226.8 227.25 226.74 125.46-.05 227.37-101.9 227.18-227.04C454.23 101.39 352.67-.14 226.95 0zm149.03 95.22c-15.04 9.73-30.69 17.8-47.33 24.44-13.35-31.88-31.82-60.39-55.34-85.72 40.52 9.72 74.58 30.23 102.67 61.28zm-138.8-67.01c1.33.72 2.5 1.1 3.36 1.84 18.19 15.83 33.86 33.86 47.09 54.02 8.33 12.69 15.45 26.03 21.51 39.94.3.68.53 1.39.88 2.29-23.82 7.52-47.98 11.65-72.83 12.61-.01-36.81-.01-73.44-.01-110.7zm-23.1 1.69c.79-.69 1.91-1.01 3.2-1.67v110.68c-24.83-.91-49.03-5.1-73.03-12.66 2.14-4.63 4.14-9.17 6.32-13.62 15.6-31.85 36.77-59.44 63.51-82.73zm-32.31 3.66c-24.09 25.61-42.59 54.1-55.99 86.1-16.64-6.67-32.25-14.69-47.32-24.44 28.06-31.05 62.15-51.55 103.31-61.66zM78.47 359.23c14.79-9.61 30.19-17.55 46.54-24.13 12.89 31.4 30.7 59.53 53.36 84.68-39.36-10-72.47-30.25-99.9-60.55zm138.74 66.37c-2.87.46-5.01-.35-7.15-2.31-28.49-26.09-50.36-56.85-65.47-92.4-.31-.74-.58-1.49-.96-2.49 24-7.69 48.41-11.9 73.58-12.89V425.6zm25.94-1.21c-1.82 1.64-3.82 1.22-5.97 1.31V315.53c25.11.94 49.52 5.16 73.62 12.85-.6 1.52-1.08 2.9-1.67 4.23-15.38 35.35-37.37 65.94-65.98 91.78zm32.9-4.6c22.64-25.14 40.46-53.27 53.36-84.7 16.32 6.55 31.68 14.51 46.56 24.11-27.33 30.27-60.46 50.56-99.92 60.59zm112.3-76.01a297.148 297.148 0 00-52.13-27.18c2.38-7.32 4.45-14.68 6.23-22.08H322.3c-1.7 6.97-3.42 12.58-4.9 15.31-26.01-8.38-63.09-15.31-100.16-14.71-10.25.17-27.27 2.77-40.67 5.11-13.33 2.33-26.45 5.9-40.03 9.01a248.52 248.52 0 01-4.31-14.73h-20.25c1.78 7.4 3.85 14.76 6.23 22.08-18.28 7.39-35.6 16.34-51.94 27.08-18.79-20.43-39.19-78.4-37.46-106.46h62.94v-19.95H28.6c2.14-39.18 14.61-74.6 37.47-106.62 16.78 10.99 34.23 20.02 52.77 27.44-2.22 6.66-4.19 13.36-5.92 20.1h20.35c1.25-4.51 2.61-9 4.1-13.47 23.4 7.47 47.18 11.91 71.59 13.47h36.56c24.32-1.55 48.1-5.99 71.32-13.4 1.43 3.23 2.94 7.92 4.4 13.4h20.2a282.15 282.15 0 00-5.93-20.09c18.51-7.39 36.01-16.46 52.79-27.44 22.86 32.02 35.29 67.41 37.47 106.6h-63.15v19.98h63.13c-2.09 39.14-14.56 74.57-37.4 106.55z"/></g></svg>